<svg width="133" height="27" viewBox="0 0 133 27" fill="none" xmlns="http://www.w3.org/2000/svg">
<path d="M20.4258 19.4766C20.4258 20.4492 20.2441 21.2871 19.8809 21.9902C19.5293 22.6934 19.0547 23.291 18.457 23.7832C17.8594 24.2754 17.168 24.6797 16.3828 24.9961C15.6094 25.3008 14.8008 25.541 13.957 25.7168C13.1133 25.8926 12.2637 26.0098 11.4082 26.0684C10.5645 26.127 9.77344 26.1562 9.03516 26.1562C8.30859 26.1562 7.55273 26.127 6.76758 26.0684C5.99414 26.0215 5.2207 25.9336 4.44727 25.8047C3.67383 25.6758 2.91211 25.5059 2.16211 25.2949C1.41211 25.0723 0.703125 24.7969 0.0351562 24.4688L0 1.82812C0.65625 1.55859 1.35352 1.31836 2.0918 1.10742C2.83008 0.884766 3.58008 0.703125 4.3418 0.5625C5.11523 0.410156 5.88281 0.298828 6.64453 0.228516C7.40625 0.146484 8.14453 0.105469 8.85938 0.105469C9.69141 0.105469 10.5293 0.158203 11.373 0.263672C12.2285 0.369141 13.0488 0.544922 13.834 0.791016C14.6191 1.03711 15.3516 1.35938 16.0312 1.75781C16.7109 2.14453 17.3027 2.625 17.8066 3.19922C18.3223 3.77344 18.7207 4.44141 19.002 5.20312C19.2949 5.96484 19.4414 6.84375 19.4414 7.83984C19.4414 8.49609 19.3477 9.11133 19.1602 9.68555C18.9727 10.2598 18.7031 10.7754 18.3516 11.2324C18 11.6895 17.5723 12.082 17.0684 12.4102C16.5645 12.7266 15.9961 12.9609 15.3633 13.1133C16.125 13.3125 16.8164 13.6055 17.4375 13.9922C18.0703 14.3789 18.6035 14.8477 19.0371 15.3984C19.4824 15.9492 19.8223 16.5703 20.0566 17.2617C20.3027 17.9531 20.4258 18.6914 20.4258 19.4766ZM11.4961 9.45703C11.4961 9.11719 11.4258 8.83008 11.2852 8.5957C11.1445 8.34961 10.9688 8.15039 10.7578 7.99805C10.5586 7.8457 10.3359 7.73438 10.0898 7.66406C9.85547 7.59375 9.64453 7.55859 9.45703 7.55859C9.22266 7.55859 8.99414 7.59375 8.77148 7.66406C8.54883 7.73438 8.33203 7.81641 8.12109 7.91016L8.01562 11.8125C8.28516 11.8125 8.61914 11.7891 9.01758 11.7422C9.41602 11.6953 9.79688 11.5957 10.1602 11.4434C10.5352 11.2793 10.8516 11.0449 11.1094 10.7402C11.3672 10.4238 11.4961 9.99609 11.4961 9.45703ZM9 15.1875C8.66016 15.1875 8.33203 15.2227 8.01562 15.293L7.94531 19.3008C8.12109 19.3359 8.29102 19.3711 8.45508 19.4062C8.63086 19.4297 8.80078 19.4414 8.96484 19.4414C9.21094 19.4414 9.48047 19.418 9.77344 19.3711C10.0664 19.3125 10.3418 19.207 10.5996 19.0547C10.8574 18.8906 11.0684 18.6738 11.2324 18.4043C11.4082 18.1348 11.4961 17.7773 11.4961 17.332C11.4961 16.8867 11.4082 16.5234 11.2324 16.2422C11.0684 15.9609 10.8633 15.7441 10.6172 15.5918C10.3711 15.4277 10.1016 15.3223 9.80859 15.2754C9.51562 15.2168 9.24609 15.1875 9 15.1875Z" fill="#1E190F"/>
<path d="M30.8672 0.984375L28.9336 24.9258L21.5156 25.3125V1.47656L30.8672 0.984375Z" fill="#1E190F"/>
<path d="M52.0137 11.7773C52.0137 13.418 51.8027 14.9004 51.3809 16.2246C50.959 17.5371 50.3672 18.709 49.6055 19.7402C48.8555 20.7598 47.959 21.6387 46.916 22.377C45.873 23.1152 44.7305 23.7246 43.4883 24.2051C42.2461 24.6738 40.9219 25.0254 39.5156 25.2598C38.1211 25.4824 36.6855 25.5938 35.209 25.5938C34.6582 25.5938 34.1191 25.582 33.5918 25.5586C33.0645 25.5234 32.5254 25.4766 31.9746 25.418L32.4668 1.82812C33.7559 1.41797 35.0801 1.13086 36.4395 0.966797C37.8105 0.791016 39.1699 0.703125 40.5176 0.703125C42.1934 0.703125 43.7344 0.955078 45.1406 1.45898C46.5469 1.96289 47.7598 2.68945 48.7793 3.63867C49.7988 4.58789 50.5898 5.74805 51.1523 7.11914C51.7266 8.49023 52.0137 10.043 52.0137 11.7773ZM44.8066 12.9023C44.8184 12.2695 44.748 11.6602 44.5957 11.0742C44.4551 10.4883 44.2148 9.97266 43.875 9.52734C43.5469 9.07031 43.125 8.70703 42.6094 8.4375C42.0938 8.15625 41.4785 8.00391 40.7637 7.98047L40.0605 18.8789C40.7637 18.7734 41.4023 18.5449 41.9766 18.1934C42.5508 17.8301 43.043 17.3906 43.4531 16.875C43.875 16.3477 44.1973 15.7676 44.4199 15.1348C44.6543 14.4902 44.7832 13.8281 44.8066 13.1484V12.9023Z" fill="#1E190F"/>
<path d="M64.1602 20.1797C64.1602 21.0469 64.0195 21.8672 63.7383 22.6406C63.457 23.4141 63.0527 24.0938 62.5254 24.6797C62.0098 25.2539 61.3828 25.7109 60.6445 26.0508C59.9062 26.4023 59.0859 26.5781 58.1836 26.5781C57.3867 26.5781 56.6484 26.4492 55.9688 26.1914C55.3008 25.9453 54.7207 25.5938 54.2285 25.1367C53.7363 24.6797 53.3496 24.123 53.0684 23.4668C52.7988 22.8105 52.6641 22.0781 52.6641 21.2695C52.6641 21.1055 52.6699 20.9004 52.6816 20.6543C52.6934 20.4082 52.7285 20.1738 52.7871 19.9512C52.8574 19.7168 52.9512 19.5234 53.0684 19.3711C53.1973 19.207 53.3789 19.125 53.6133 19.125C53.8008 19.125 54.0059 19.166 54.2285 19.248C54.4629 19.3184 54.6797 19.418 54.8789 19.5469C55.0781 19.6758 55.2422 19.834 55.3711 20.0215C55.5117 20.1973 55.582 20.3906 55.582 20.6016V21.6211C55.582 22.4297 55.7988 23.0918 56.2324 23.6074C56.6777 24.1113 57.3164 24.3633 58.1484 24.3633C58.7344 24.3633 59.2383 24.2285 59.6602 23.959C60.082 23.6895 60.4219 23.3438 60.6797 22.9219C60.9492 22.5 61.1426 22.0312 61.2598 21.5156C61.3887 20.9883 61.4531 20.4727 61.4531 19.9688C61.4531 18.9844 61.248 18.0293 60.8379 17.1035C60.4395 16.1777 59.9355 15.2754 59.3262 14.3965C58.7168 13.5059 58.0547 12.6328 57.3398 11.7773C56.625 10.9219 55.9629 10.0723 55.3535 9.22852C54.7441 8.38477 54.2344 7.54102 53.8242 6.69727C53.4258 5.85352 53.2266 4.99219 53.2266 4.11328C53.2266 3.39844 53.3672 2.7832 53.6484 2.26758C53.9414 1.74023 54.3223 1.3125 54.791 0.984375C55.2715 0.644531 55.8105 0.398438 56.4082 0.246094C57.0176 0.0820312 57.6445 0 58.2891 0C59.0742 0 59.7773 0.111328 60.3984 0.333984C61.0195 0.556641 61.5469 0.878906 61.9805 1.30078C62.4141 1.72266 62.7422 2.24414 62.9648 2.86523C63.1992 3.47461 63.3164 4.17188 63.3164 4.95703C63.3164 5.07422 63.3105 5.2207 63.2988 5.39648C63.2871 5.57227 63.2578 5.74805 63.2109 5.92383C63.1641 6.08789 63.0938 6.23438 63 6.36328C62.9062 6.48047 62.7773 6.53906 62.6133 6.53906C62.3789 6.53906 62.1445 6.48047 61.9102 6.36328C61.7109 6.25781 61.5469 6.1582 61.418 6.06445C61.3008 5.95898 61.207 5.84766 61.1367 5.73047C61.0664 5.60156 61.0137 5.46094 60.9785 5.30859C60.9434 5.15625 60.9141 4.96875 60.8906 4.74609C60.832 4.32422 60.7559 3.94336 60.6621 3.60352C60.5684 3.26367 60.4277 2.97656 60.2402 2.74219C60.0527 2.50781 59.8066 2.32617 59.502 2.19727C59.1973 2.06836 58.8047 2.00391 58.3242 2.00391C57.9844 2.00391 57.6562 2.03906 57.3398 2.10938C57.0352 2.17969 56.7656 2.29688 56.5312 2.46094C56.3086 2.625 56.127 2.8418 55.9863 3.11133C55.8574 3.36914 55.793 3.69141 55.793 4.07812C55.793 4.61719 55.9102 5.16797 56.1445 5.73047C56.3906 6.29297 56.707 6.86719 57.0938 7.45312C57.4922 8.03906 57.9375 8.64258 58.4297 9.26367C58.9336 9.87305 59.4492 10.5059 59.9766 11.1621C60.5039 11.8184 61.0137 12.498 61.5059 13.2012C62.0098 13.8926 62.4551 14.6133 62.8418 15.3633C63.2402 16.1133 63.5566 16.8926 63.791 17.7012C64.0371 18.498 64.1602 19.3242 64.1602 20.1797Z" fill="#1E190F"/>
<path d="M77.0625 6.82031C77.0625 7.98047 76.875 9.14648 76.5 10.3184C76.1367 11.4902 75.6211 12.5859 74.9531 13.6055C74.2969 14.625 73.5059 15.5332 72.5801 16.3301C71.6543 17.127 70.6406 17.7305 69.5391 18.1406C69.6094 19.1133 69.6914 20.0801 69.7852 21.041C69.8789 22.002 70.0078 22.9688 70.1719 23.9414C70.207 24.1172 70.2422 24.2988 70.2773 24.4863C70.3242 24.6738 70.3477 24.8672 70.3477 25.0664C70.3477 25.3711 70.2715 25.5762 70.1191 25.6816C69.9668 25.7871 69.75 25.8398 69.4688 25.8398C69.2695 25.8398 69.0293 25.8164 68.748 25.7695C68.4668 25.7227 68.2266 25.6523 68.0273 25.5586C67.793 25.4297 67.6348 25.3008 67.5527 25.1719C67.4824 25.0312 67.4297 24.8438 67.3945 24.6094C67.1953 23.6133 67.0723 22.6172 67.0254 21.6211C66.9902 20.625 66.9375 19.6289 66.8672 18.6328C66.6328 18.6094 66.4395 18.5508 66.2871 18.457C66.1348 18.3516 66.0586 18.1758 66.0586 17.9297C66.0586 17.6953 66.123 17.4492 66.252 17.1914C66.3926 16.9336 66.5508 16.7344 66.7266 16.5938C66.6211 14.4141 66.5742 12.252 66.5859 10.1074C66.6094 7.96289 66.6094 5.80078 66.5859 3.62109C66.5273 3.64453 66.4746 3.66211 66.4277 3.67383C66.3809 3.68555 66.3281 3.69141 66.2695 3.69141C66.1406 3.69141 66.0352 3.66211 65.9531 3.60352C65.8711 3.5332 65.8008 3.45117 65.7422 3.35742C65.6953 3.26367 65.6602 3.16406 65.6367 3.05859C65.6133 2.94141 65.6016 2.83594 65.6016 2.74219C65.6016 2.39062 65.6895 2.13867 65.8652 1.98633C66.041 1.82227 66.2812 1.67578 66.5859 1.54688C66.5859 1.41797 66.5859 1.27148 66.5859 1.10742C66.5977 0.931641 66.6211 0.773438 66.6562 0.632812C66.7031 0.480469 66.7734 0.357422 66.8672 0.263672C66.9609 0.158203 67.1016 0.105469 67.2891 0.105469C67.5938 0.105469 67.8867 0.164062 68.168 0.28125C68.4492 0.398438 68.6602 0.597656 68.8008 0.878906C69.2109 0.808594 69.6094 0.744141 69.9961 0.685547C70.3828 0.626953 70.7812 0.597656 71.1914 0.597656C72.1172 0.597656 72.9434 0.755859 73.6699 1.07227C74.3965 1.37695 75.0117 1.81055 75.5156 2.37305C76.0195 2.92383 76.4004 3.58008 76.6582 4.3418C76.9277 5.10352 77.0625 5.92969 77.0625 6.82031ZM74.4258 6.50391C74.4258 5.96484 74.3555 5.46094 74.2148 4.99219C74.0742 4.51172 73.8633 4.10156 73.582 3.76172C73.3008 3.41016 72.9434 3.13477 72.5098 2.93555C72.0762 2.73633 71.5664 2.63672 70.9805 2.63672C70.6641 2.63672 70.3418 2.66016 70.0137 2.70703C69.6973 2.75391 69.3867 2.82422 69.082 2.91797C69.082 5.0625 69.0938 7.18945 69.1172 9.29883C69.1523 11.4082 69.2344 13.5234 69.3633 15.6445C70.1133 15.2578 70.7988 14.7188 71.4199 14.0273C72.041 13.3359 72.5742 12.5742 73.0195 11.7422C73.4648 10.8984 73.8105 10.0254 74.0566 9.12305C74.3027 8.20898 74.4258 7.33594 74.4258 6.50391Z" fill="#1E190F"/>
<path d="M91.9863 12.0586C91.9863 12.5859 91.8516 12.9609 91.582 13.1836C91.3125 13.3945 90.9316 13.5469 90.4395 13.6406C90.5449 15.4453 90.6094 17.2383 90.6328 19.0195C90.668 20.8008 90.6855 22.5938 90.6855 24.3984C90.6855 24.6797 90.627 24.8965 90.5098 25.0488C90.3926 25.2012 90.1816 25.2773 89.877 25.2773C89.6191 25.2773 89.3613 25.248 89.1035 25.1895C88.8574 25.1309 88.6348 25.043 88.4355 24.9258C88.2363 24.7969 88.0723 24.6328 87.9434 24.4336C87.8262 24.2227 87.7676 23.9648 87.7676 23.6602V18.1758C87.7676 17.4844 87.7676 16.793 87.7676 16.1016C87.7676 15.4102 87.7559 14.7188 87.7324 14.0273C86.7246 14.168 85.7168 14.291 84.709 14.3965C83.7012 14.4902 82.6934 14.5547 81.6855 14.5898C81.7207 17.0859 81.791 19.582 81.8965 22.0781C81.9316 22.5938 81.9668 23.0977 82.002 23.5898C82.0488 24.082 82.0723 24.5742 82.0723 25.0664C82.0723 25.3008 82.0078 25.4766 81.8789 25.5938C81.75 25.7109 81.5684 25.7695 81.334 25.7695C81.1582 25.7695 80.9707 25.7578 80.7715 25.7344C80.5723 25.6992 80.373 25.6465 80.1738 25.5762C79.9863 25.5059 79.8105 25.418 79.6465 25.3125C79.4824 25.207 79.3535 25.0781 79.2598 24.9258C79.2246 24.8672 79.1953 24.6914 79.1719 24.3984C79.1484 24.1055 79.125 23.7363 79.1016 23.291C79.0898 22.8457 79.0781 22.3418 79.0664 21.7793C79.0547 21.2168 79.0488 20.6367 79.0488 20.0391C79.0488 19.4414 79.0488 18.8555 79.0488 18.2812C79.0488 17.6953 79.0488 17.1562 79.0488 16.6641C79.0488 16.1719 79.0488 15.7441 79.0488 15.3809C79.0488 15.0176 79.0488 14.7656 79.0488 14.625C78.8848 14.625 78.7383 14.5898 78.6094 14.5195C78.4805 14.4375 78.416 14.3086 78.416 14.1328C78.416 13.9219 78.4746 13.7227 78.5918 13.5352C78.7207 13.3359 78.873 13.1719 79.0488 13.043V2.42578C79.0488 2.19141 79.0898 2.00391 79.1719 1.86328C79.2656 1.72266 79.4355 1.65234 79.6816 1.65234C80.0801 1.65234 80.3965 1.71094 80.6309 1.82812C80.877 1.94531 81.0586 2.10938 81.1758 2.32031C81.3047 2.51953 81.3867 2.76562 81.4219 3.05859C81.4688 3.33984 81.498 3.64453 81.5098 3.97266C81.5449 5.40234 81.5684 6.83203 81.5801 8.26172C81.5918 9.69141 81.6152 11.1211 81.6504 12.5508C82.6582 12.457 83.6602 12.3633 84.6562 12.2695C85.6523 12.1641 86.6543 12.0117 87.6621 11.8125C87.6035 10.5703 87.5273 9.33984 87.4336 8.12109C87.3516 6.90234 87.2285 5.67188 87.0645 4.42969C86.9707 3.84375 86.8594 3.26367 86.7305 2.68945C86.6016 2.10352 86.5371 1.51172 86.5371 0.914062C86.5371 0.703125 86.6133 0.568359 86.7656 0.509766C86.9297 0.451172 87.0996 0.421875 87.2754 0.421875C87.5566 0.421875 87.8379 0.46875 88.1191 0.5625C88.4121 0.65625 88.6465 0.820312 88.8223 1.05469C88.9277 1.20703 89.0391 1.5293 89.1562 2.02148C89.2734 2.50195 89.3789 3.07617 89.4727 3.74414C89.5781 4.41211 89.6777 5.13281 89.7715 5.90625C89.8652 6.67969 89.9473 7.42383 90.0176 8.13867C90.0879 8.8418 90.1465 9.48047 90.1934 10.0547C90.252 10.6172 90.2871 11.0273 90.2988 11.2852C90.4395 11.25 90.5859 11.2207 90.7383 11.1973C90.8906 11.1621 91.0371 11.1445 91.1777 11.1445C91.459 11.1445 91.6641 11.2324 91.793 11.4082C91.9219 11.5723 91.9863 11.7891 91.9863 12.0586Z" fill="#1E190F"/>
<path d="M106.049 21.9023C106.049 22.1016 105.967 22.2949 105.803 22.4824C105.65 22.6699 105.463 22.8516 105.24 23.0273C105.018 23.2031 104.789 23.3672 104.555 23.5195C104.32 23.6602 104.127 23.7773 103.975 23.8711C103.576 24.1289 103.178 24.3691 102.779 24.5918C102.393 24.8145 101.988 25.0078 101.566 25.1719C101.156 25.3359 100.729 25.4648 100.283 25.5586C99.8496 25.6523 99.3926 25.6992 98.9121 25.6992L98.6309 25.7344C98.2441 25.7344 97.8574 25.6934 97.4707 25.6113C97.0957 25.5176 96.7441 25.3828 96.416 25.207C96.0879 25.0195 95.7949 24.7852 95.5371 24.5039C95.2793 24.2227 95.0801 23.8828 94.9395 23.4844C94.834 23.168 94.752 22.793 94.6934 22.3594C94.6348 21.9258 94.5879 21.4746 94.5527 21.0059C94.5293 20.5371 94.5059 20.0801 94.4824 19.6348C94.4707 19.1777 94.459 18.7734 94.4473 18.4219C94.2715 14.8359 94.1309 11.25 94.0254 7.66406C94.002 7.25391 93.9844 6.84375 93.9727 6.43359C93.9609 6.02344 93.9551 5.61328 93.9551 5.20312C93.9551 4.5 93.9961 3.90234 94.0781 3.41016C94.1602 2.91797 94.3242 2.51367 94.5703 2.19727C94.8164 1.88086 95.168 1.65234 95.625 1.51172C96.0938 1.37109 96.709 1.30078 97.4707 1.30078C98.2324 1.30078 98.9941 1.30664 99.7559 1.31836C100.529 1.33008 101.303 1.33594 102.076 1.33594C102.311 1.33594 102.545 1.33008 102.779 1.31836C103.014 1.29492 103.248 1.3125 103.482 1.37109C103.623 1.39453 103.746 1.43555 103.852 1.49414C103.957 1.54102 104.01 1.65234 104.01 1.82812C104.01 2.25 103.869 2.56641 103.588 2.77734C103.307 2.97656 102.973 3.11133 102.586 3.18164C102.199 3.25195 101.795 3.28711 101.373 3.28711C100.963 3.27539 100.623 3.26953 100.354 3.26953H98.0684C97.834 3.26953 97.5996 3.26953 97.3652 3.26953C97.1309 3.26953 96.8965 3.28125 96.6621 3.30469C96.5918 3.48047 96.5449 3.66211 96.5215 3.84961C96.498 4.03711 96.4863 4.23047 96.4863 4.42969C96.4863 5.70703 96.5156 6.9668 96.5742 8.20898C96.6445 9.45117 96.709 10.7109 96.7676 11.9883C97.4941 11.9297 98.2148 11.8594 98.9297 11.7773C99.6445 11.6953 100.365 11.6016 101.092 11.4961C101.197 11.4961 101.291 11.4902 101.373 11.4785C101.467 11.4668 101.561 11.4609 101.654 11.4609C101.9 11.4609 102.07 11.5254 102.164 11.6543C102.27 11.7832 102.322 11.9648 102.322 12.1992C102.322 12.3633 102.311 12.5156 102.287 12.6562C102.275 12.7969 102.24 12.9375 102.182 13.0781C102.1 13.3125 101.965 13.4824 101.777 13.5879C101.59 13.6934 101.379 13.7695 101.145 13.8164C100.91 13.8516 100.664 13.8691 100.406 13.8691C100.16 13.8691 99.9434 13.875 99.7559 13.8867C99.2637 13.9102 98.7773 13.9277 98.2969 13.9395C97.8281 13.9512 97.3535 13.9688 96.873 13.9922C96.8848 14.2383 96.9023 14.6074 96.9258 15.0996C96.9492 15.5918 96.9727 16.1484 96.9961 16.7695C97.0312 17.3789 97.0664 18.0117 97.1016 18.668C97.1484 19.3242 97.1953 19.9453 97.2422 20.5312C97.2891 21.1055 97.3418 21.6094 97.4004 22.043C97.459 22.4766 97.5176 22.7695 97.5762 22.9219C97.7051 23.168 97.8516 23.332 98.0156 23.4141C98.1797 23.4844 98.3965 23.5195 98.666 23.5195C99.0996 23.5195 99.5566 23.4375 100.037 23.2734C100.518 23.0977 100.986 22.8809 101.443 22.623C101.9 22.3535 102.334 22.0605 102.744 21.7441C103.166 21.4277 103.529 21.1172 103.834 20.8125C103.963 20.707 104.092 20.6016 104.221 20.4961C104.35 20.3789 104.502 20.3203 104.678 20.3203C104.854 20.3203 105.023 20.373 105.188 20.4785C105.352 20.584 105.498 20.7188 105.627 20.8828C105.756 21.0352 105.855 21.2051 105.926 21.3926C106.008 21.5801 106.049 21.75 106.049 21.9023Z" fill="#1E190F"/>
<path d="M120.709 25.6641C120.709 25.8047 120.639 25.9219 120.498 26.0156C120.357 26.1094 120.188 26.1855 119.988 26.2441C119.801 26.3027 119.607 26.3438 119.408 26.3672C119.221 26.3906 119.08 26.4023 118.986 26.4023C118.752 26.4023 118.559 26.3789 118.406 26.332C118.266 26.2969 118.096 26.2266 117.896 26.1211C117.838 26.0859 117.697 25.9395 117.475 25.6816C117.264 25.4121 116.994 25.0664 116.666 24.6445C116.35 24.2227 115.986 23.7422 115.576 23.2031C115.178 22.6641 114.762 22.1133 114.328 21.5508C113.906 20.9766 113.484 20.4082 113.062 19.8457C112.652 19.2715 112.271 18.75 111.92 18.2812C111.568 17.8008 111.264 17.3848 111.006 17.0332C110.76 16.6699 110.584 16.418 110.479 16.2773L110.373 16.3125C110.443 17.707 110.531 19.1016 110.637 20.4961C110.754 21.8789 110.947 23.25 111.217 24.6094C111.252 24.75 111.287 24.8965 111.322 25.0488C111.369 25.2012 111.393 25.3594 111.393 25.5234C111.393 25.793 111.305 25.9629 111.129 26.0332C110.953 26.1152 110.76 26.1562 110.549 26.1562C110.432 26.1562 110.291 26.1504 110.127 26.1387C109.963 26.127 109.793 26.1035 109.617 26.0684C109.441 26.0332 109.277 25.9863 109.125 25.9277C108.984 25.8809 108.873 25.8164 108.791 25.7344C108.627 25.5938 108.521 25.4473 108.475 25.2949C108.439 25.1426 108.404 24.9609 108.369 24.75C108.029 22.3945 107.812 20.0332 107.719 17.666C107.637 15.2871 107.596 12.9141 107.596 10.5469C107.596 9.51562 107.602 8.50195 107.613 7.50586C107.625 6.50977 107.643 5.49609 107.666 4.46484C107.525 4.45312 107.391 4.40625 107.262 4.32422C107.145 4.24219 107.039 4.14258 106.945 4.02539C106.852 3.89648 106.775 3.76758 106.717 3.63867C106.67 3.49805 106.646 3.36328 106.646 3.23438C106.646 3.10547 106.676 2.97656 106.734 2.84766C106.805 2.71875 106.887 2.60156 106.98 2.49609C107.086 2.39062 107.197 2.29102 107.314 2.19727C107.432 2.10352 107.537 2.02734 107.631 1.96875V1.65234C107.631 1.53516 107.631 1.40039 107.631 1.24805C107.643 1.0957 107.666 0.955078 107.701 0.826172C107.748 0.685547 107.818 0.574219 107.912 0.492188C108.006 0.398438 108.146 0.351562 108.334 0.351562C108.58 0.351562 108.826 0.392578 109.072 0.474609C109.318 0.556641 109.529 0.703125 109.705 0.914062C110.584 0.5625 111.51 0.386719 112.482 0.386719C113.338 0.386719 114.117 0.556641 114.82 0.896484C115.523 1.23633 116.121 1.69336 116.613 2.26758C117.117 2.8418 117.504 3.50391 117.773 4.25391C118.043 5.00391 118.178 5.78906 118.178 6.60938C118.178 7.48828 118.014 8.34375 117.686 9.17578C117.357 9.99609 116.93 10.7754 116.402 11.5137C115.875 12.252 115.271 12.9316 114.592 13.5527C113.924 14.1621 113.244 14.6953 112.553 15.1523C113.654 16.6172 114.768 18.0703 115.893 19.5117C117.029 20.9414 118.189 22.3711 119.373 23.8008C119.443 23.8828 119.549 24.0059 119.689 24.1699C119.842 24.334 119.994 24.5156 120.146 24.7148C120.299 24.9023 120.428 25.084 120.533 25.2598C120.65 25.4355 120.709 25.5703 120.709 25.6641ZM115.576 6.32812C115.576 5.89453 115.5 5.44336 115.348 4.97461C115.195 4.50586 114.979 4.08398 114.697 3.70898C114.416 3.32227 114.076 3.00586 113.678 2.75977C113.291 2.51367 112.857 2.39062 112.377 2.39062C111.99 2.39062 111.604 2.44922 111.217 2.56641C110.842 2.67188 110.479 2.8125 110.127 2.98828C110.15 4.73438 110.168 6.48047 110.18 8.22656C110.203 9.97266 110.232 11.7188 110.268 13.4648L110.584 13.5C111.193 13.1602 111.791 12.7324 112.377 12.2168C112.975 11.7012 113.508 11.127 113.977 10.4941C114.457 9.86133 114.844 9.19336 115.137 8.49023C115.43 7.77539 115.576 7.05469 115.576 6.32812Z" fill="#1E190F"/>
<path d="M132.908 21.9023C132.908 22.1016 132.826 22.2949 132.662 22.4824C132.51 22.6699 132.322 22.8516 132.1 23.0273C131.877 23.2031 131.648 23.3672 131.414 23.5195C131.18 23.6602 130.986 23.7773 130.834 23.8711C130.436 24.1289 130.037 24.3691 129.639 24.5918C129.252 24.8145 128.848 25.0078 128.426 25.1719C128.016 25.3359 127.588 25.4648 127.143 25.5586C126.709 25.6523 126.252 25.6992 125.771 25.6992L125.49 25.7344C125.104 25.7344 124.717 25.6934 124.33 25.6113C123.955 25.5176 123.604 25.3828 123.275 25.207C122.947 25.0195 122.654 24.7852 122.396 24.5039C122.139 24.2227 121.939 23.8828 121.799 23.4844C121.693 23.168 121.611 22.793 121.553 22.3594C121.494 21.9258 121.447 21.4746 121.412 21.0059C121.389 20.5371 121.365 20.0801 121.342 19.6348C121.33 19.1777 121.318 18.7734 121.307 18.4219C121.131 14.8359 120.99 11.25 120.885 7.66406C120.861 7.25391 120.844 6.84375 120.832 6.43359C120.82 6.02344 120.814 5.61328 120.814 5.20312C120.814 4.5 120.855 3.90234 120.938 3.41016C121.02 2.91797 121.184 2.51367 121.43 2.19727C121.676 1.88086 122.027 1.65234 122.484 1.51172C122.953 1.37109 123.568 1.30078 124.33 1.30078C125.092 1.30078 125.854 1.30664 126.615 1.31836C127.389 1.33008 128.162 1.33594 128.936 1.33594C129.17 1.33594 129.404 1.33008 129.639 1.31836C129.873 1.29492 130.107 1.3125 130.342 1.37109C130.482 1.39453 130.605 1.43555 130.711 1.49414C130.816 1.54102 130.869 1.65234 130.869 1.82812C130.869 2.25 130.729 2.56641 130.447 2.77734C130.166 2.97656 129.832 3.11133 129.445 3.18164C129.059 3.25195 128.654 3.28711 128.232 3.28711C127.822 3.27539 127.482 3.26953 127.213 3.26953H124.928C124.693 3.26953 124.459 3.26953 124.225 3.26953C123.99 3.26953 123.756 3.28125 123.521 3.30469C123.451 3.48047 123.404 3.66211 123.381 3.84961C123.357 4.03711 123.346 4.23047 123.346 4.42969C123.346 5.70703 123.375 6.9668 123.434 8.20898C123.504 9.45117 123.568 10.7109 123.627 11.9883C124.354 11.9297 125.074 11.8594 125.789 11.7773C126.504 11.6953 127.225 11.6016 127.951 11.4961C128.057 11.4961 128.15 11.4902 128.232 11.4785C128.326 11.4668 128.42 11.4609 128.514 11.4609C128.76 11.4609 128.93 11.5254 129.023 11.6543C129.129 11.7832 129.182 11.9648 129.182 12.1992C129.182 12.3633 129.17 12.5156 129.146 12.6562C129.135 12.7969 129.1 12.9375 129.041 13.0781C128.959 13.3125 128.824 13.4824 128.637 13.5879C128.449 13.6934 128.238 13.7695 128.004 13.8164C127.77 13.8516 127.523 13.8691 127.266 13.8691C127.02 13.8691 126.803 13.875 126.615 13.8867C126.123 13.9102 125.637 13.9277 125.156 13.9395C124.688 13.9512 124.213 13.9688 123.732 13.9922C123.744 14.2383 123.762 14.6074 123.785 15.0996C123.809 15.5918 123.832 16.1484 123.855 16.7695C123.891 17.3789 123.926 18.0117 123.961 18.668C124.008 19.3242 124.055 19.9453 124.102 20.5312C124.148 21.1055 124.201 21.6094 124.26 22.043C124.318 22.4766 124.377 22.7695 124.436 22.9219C124.564 23.168 124.711 23.332 124.875 23.4141C125.039 23.4844 125.256 23.5195 125.525 23.5195C125.959 23.5195 126.416 23.4375 126.896 23.2734C127.377 23.0977 127.846 22.8809 128.303 22.623C128.76 22.3535 129.193 22.0605 129.604 21.7441C130.025 21.4277 130.389 21.1172 130.693 20.8125C130.822 20.707 130.951 20.6016 131.08 20.4961C131.209 20.3789 131.361 20.3203 131.537 20.3203C131.713 20.3203 131.883 20.373 132.047 20.4785C132.211 20.584 132.357 20.7188 132.486 20.8828C132.615 21.0352 132.715 21.2051 132.785 21.3926C132.867 21.5801 132.908 21.75 132.908 21.9023Z" fill="#1E190F"/>
</svg>
